<svg width="237" height="60" viewBox="0 0 237 60" fill="none" xmlns="http://www.w3.org/2000/svg">
<path fill-rule="evenodd" clip-rule="evenodd" d="M104.4 21.5674C101.577 19.2313 97.5742 17.8777 92.495 17.5451V14.3639H85.9908V17.5451C80.9116 17.8777 76.9011 19.2313 74.0627 21.5636C71.0787 24.0183 69.5657 27.4098 69.5657 31.6501C69.5657 35.8903 71.0979 39.278 74.0665 41.7136C76.9011 44.0345 80.9116 45.3765 85.9908 45.713V49.0241H92.4835V45.7206C97.5627 45.4377 101.566 44.1071 104.392 41.7556C107.357 39.2895 108.863 35.8903 108.863 31.6501C108.863 27.4098 107.357 24.0183 104.4 21.5674ZM99.6158 37.5153C101.328 36.0968 102.159 34.1659 102.159 31.608H102.148C102.148 29.0501 101.309 27.1268 99.5967 25.7236C97.9611 24.3892 95.5593 23.571 92.495 23.288V40.0083C95.6015 39.6986 97.9917 38.8612 99.6158 37.5153ZM86.0023 23.2919C79.5326 23.9189 76.3839 26.6565 76.3839 31.6501H76.3725C76.3725 34.1774 77.2037 36.0892 78.9427 37.4924C80.5783 38.823 82.9379 39.668 86.0023 40.0045V23.2919Z" fill="white"/>
<path fill-rule="evenodd" clip-rule="evenodd" d="M123.553 15.6065L109.046 47.7853H116.282L119.347 40.6047H134.125L137.235 47.7853H144.555L129.999 15.6065H123.553ZM121.813 34.923H131.7L126.743 23.4065L121.813 34.923Z" fill="white"/>
<path fill-rule="evenodd" clip-rule="evenodd" d="M168.457 16.9868C166.155 16.0229 163.675 15.5526 161.179 15.6065H147.819V31.6959V47.7853H154.756V38.8344H161.183C163.679 38.8883 166.159 38.4181 168.461 37.4541C170.446 36.618 172.135 35.2077 173.311 33.405C174.418 31.5272 175.002 29.3879 175.002 27.209C175.002 25.0301 174.418 22.8908 173.311 21.013C172.13 19.2188 170.44 17.817 168.457 16.9868ZM166.274 31.3441C167.446 30.3883 168.013 29.0424 168.013 27.23C168.013 25.41 167.477 24.0795 166.282 23.1083C165.087 22.1371 163.282 21.6439 160.919 21.6439H154.756V32.8085H160.911C163.282 32.8085 165.102 32.3 166.274 31.3441Z" fill="white"/>
<path d="M199.844 15.6065L190.751 33.1182L181.918 15.6065H174.414L187.093 39.2856L186.79 39.7559C185.679 41.5109 184.331 42.3673 182.668 42.3673C181.699 42.3236 180.741 42.1381 179.826 41.8168L179.267 41.6409L177.513 47.2194L177.999 47.4259C179.512 48.0899 181.146 48.4373 182.799 48.4467C184.826 48.4487 186.806 47.8353 188.475 46.6879C190.188 45.5409 191.678 43.7859 192.9 41.4956L206.858 15.6065H199.844Z" fill="white"/>
<path d="M232.036 38.5247C231.059 39.6447 229.849 40.5373 228.489 41.1398C227.13 41.7423 225.655 42.0399 224.168 42.0118C222.27 42.0408 220.397 41.5854 218.725 40.6888C217.166 39.8403 215.875 38.5744 214.998 37.0335C214.115 35.3923 213.653 33.5586 213.653 31.6959C213.653 29.8332 214.115 27.9995 214.998 26.3583C215.874 24.8165 217.165 23.5504 218.725 22.703C220.396 21.8051 222.27 21.3496 224.168 21.38C225.652 21.3487 227.124 21.6403 228.484 22.2346C229.843 22.8289 231.056 23.7115 232.039 24.8212L232.423 25.2533L236.988 20.9671L236.625 20.5465C235.122 18.7935 233.229 17.416 231.097 16.5242C228.815 15.5879 226.367 15.1198 223.9 15.1477C220.84 15.1113 217.822 15.8479 215.124 17.2889C212.561 18.6608 210.42 20.7028 208.93 23.1962C207.454 25.7838 206.676 28.7094 206.672 31.6871C206.668 34.6648 207.438 37.5926 208.907 40.1841C210.384 42.6797 212.518 44.7229 215.078 46.0914C217.778 47.5301 220.798 48.264 223.858 48.225C226.331 48.2513 228.785 47.7833 231.074 46.8485C233.218 45.9638 235.124 44.5901 236.64 42.8376L237 42.417L232.438 38.0812L232.036 38.5247Z" fill="white"/>
<path fill-rule="evenodd" clip-rule="evenodd" d="M233.837 8.19713L232.563 6.39745C233.315 6.12941 233.745 5.53207 233.745 4.70498C233.745 3.54093 232.901 2.83638 231.504 2.83638H229.41V8.19713H230.177V6.56593H231.504C231.62 6.56593 231.735 6.55827 231.842 6.55062L233.001 8.19713H233.837ZM230.177 5.91498H231.481C232.464 5.91498 232.978 5.47081 232.978 4.70498C232.978 3.93916 232.464 3.50264 231.481 3.50264H230.177V5.91498Z" fill="white"/>
<path fill-rule="evenodd" clip-rule="evenodd" d="M236.988 5.53094C236.988 8.58559 234.507 11.0619 231.446 11.0619C228.386 11.0619 225.904 8.58559 225.904 5.53094C225.904 2.47628 228.386 0 231.446 0C234.507 0 236.988 2.47628 236.988 5.53094ZM231.446 10.3055C234.089 10.3055 236.231 8.16786 236.231 5.53094C236.231 2.89402 234.089 0.756367 231.446 0.756367C228.804 0.756367 226.662 2.89402 226.662 5.53094C226.662 8.16786 228.804 10.3055 231.446 10.3055Z" fill="white"/>
<path d="M58.2336 40.3478C54.2685 49.6933 47.7952 49.6637 47.7952 49.6637H20.5427C21.594 48.1604 24.8832 42.5768 26.633 40.0368H58.0684L55.4626 35.5936C53.4795 35.2567 51.4634 35.1473 49.4548 35.2678C46.1719 35.4195 42.907 35.8344 39.6923 36.5082C39.6625 36.5078 39.6332 36.5015 39.6059 36.4897C40.034 35.8343 40.5146 35.2048 40.8826 34.5161C42.3056 31.8428 42.8538 28.9436 43.0791 25.9704C43.4021 21.7161 43.2669 17.5247 41.8551 13.5073C40.8037 10.5155 34.7772 0 34.7772 0L0 59.8497H69.5657L58.2336 40.3478Z" fill="white"/>
</svg>
