<svg width="51" height="44" viewBox="0 0 51 44" fill="none" xmlns="http://www.w3.org/2000/svg">
<path d="M42.0335 29.1234C39.1715 35.869 34.499 35.8477 34.499 35.8477H14.8279C15.5867 34.7626 17.9609 30.7323 19.2239 28.8989H41.9142L40.0333 25.6918C38.6019 25.4485 37.1467 25.3696 35.6969 25.4566C33.3273 25.5661 30.9706 25.8655 28.6502 26.3519C28.6287 26.3516 28.6075 26.3471 28.5879 26.3385C28.8968 25.8655 29.2438 25.4111 29.5094 24.914C30.5365 22.9844 30.9323 20.8918 31.0949 18.7457C31.328 15.6748 31.2304 12.6494 30.2113 9.74967C29.4524 7.5902 25.1025 0 25.1025 0L0 43.2H50.2131L42.0335 29.1234Z" fill="#014037"/>
</svg>
