<svg width="226" height="226" viewBox="0 0 226 226" fill="none" xmlns="http://www.w3.org/2000/svg">
<path d="M171.996 142.346V160.109C172.003 161.758 171.665 163.391 171.003 164.902C170.341 166.413 169.37 167.769 168.152 168.884C166.935 169.999 165.497 170.848 163.932 171.376C162.367 171.904 160.708 172.1 159.062 171.952C140.806 169.972 123.269 163.746 107.861 153.774C93.5254 144.683 81.3717 132.553 72.2625 118.246C62.2356 102.799 55.9956 85.2115 54.0482 66.9089C53.8999 65.2715 54.0949 63.6212 54.6207 62.0631C55.1465 60.505 55.9916 59.0732 57.1023 57.859C58.2129 56.6447 59.5647 55.6746 61.0716 55.0103C62.5785 54.346 64.2075 54.0021 65.8548 54.0006H83.6539C86.5332 53.9723 89.3246 54.9899 91.5078 56.8637C93.6909 58.7375 95.1169 61.3396 95.5199 64.1851C96.2711 69.8699 97.6644 75.4517 99.673 80.8238C100.471 82.9432 100.644 85.2465 100.171 87.4609C99.6976 89.6752 98.5983 91.7078 97.0031 93.3177L89.4682 100.838C97.9142 115.662 110.213 127.936 125.066 136.365L132.601 128.845C134.214 127.253 136.251 126.156 138.47 125.684C140.688 125.212 142.996 125.384 145.12 126.181C150.503 128.185 156.096 129.576 161.792 130.326C164.674 130.731 167.306 132.18 169.187 134.396C171.069 136.613 172.069 139.442 171.996 142.346Z" fill="white"/>
</svg>
