<svg width="226" height="226" viewBox="0 0 226 226" fill="none" xmlns="http://www.w3.org/2000/svg">
<path fill-rule="evenodd" clip-rule="evenodd" d="M113.911 33C63.705 33 30 66.8805 30 112.874C30 159.394 63.3539 193.274 113.209 193.274C126.2 193.274 141.297 190.466 152.005 185.024L147.265 170.98C136.557 176.422 123.918 178.704 113.209 178.704C72.8334 178.704 46.1503 151.67 46.1503 112.874C46.1503 74.6046 73.1845 47.3948 113.911 47.3948C153.936 47.3948 181.321 72.6736 181.321 110.241C181.321 130.955 176.055 142.015 166.575 142.015C161.66 142.015 157.447 139.03 157.447 130.077V70.3915H137.961V81.802C131.115 73.5513 120.933 69.3382 108.645 69.3382C84.4195 69.3382 66.5137 87.7706 66.5137 113.752C66.5137 140.084 84.4195 158.516 108.645 158.516C122.689 158.516 133.397 153.25 140.243 143.243C143.228 153.25 151.303 158.516 162.538 158.516C183.604 158.516 196.243 140.259 196.243 109.89C196.243 65.1251 162.362 33 113.911 33ZM86.3505 113.752C86.3505 130.78 97.0589 141.488 112.331 141.488C127.077 141.488 138.312 131.306 138.312 113.752C138.312 96.3724 127.077 86.3663 112.331 86.3663C97.0589 86.3663 86.3505 96.8991 86.3505 113.752Z" fill="white"/>
</svg>
