<svg width="227" height="227" viewBox="0 0 227 227" fill="none" xmlns="http://www.w3.org/2000/svg">
<path d="M149.701 171.728C149.277 172.786 148.631 173.741 147.808 174.528C146.984 175.316 146.002 175.919 144.927 176.296C143.851 176.674 142.708 176.817 141.573 176.716C140.437 176.615 139.337 176.273 138.345 175.712L107.579 151.805L87.8323 170.023C87.3741 170.361 86.8381 170.579 86.2737 170.656C85.7093 170.733 85.1345 170.667 84.6023 170.464L88.3876 136.595L88.5088 136.691L88.5862 136.022C88.5862 136.022 143.95 85.6171 146.205 83.4696C148.488 81.3276 147.735 80.8629 147.735 80.8629C147.865 78.2502 143.638 80.8629 143.638 80.8629L70.2824 128.055L39.7335 117.651C39.7335 117.651 35.0415 115.968 34.5995 112.268C34.1348 108.596 39.8864 106.601 39.8864 106.601L161.346 58.3496C161.346 58.3496 171.33 53.901 171.33 61.268L149.701 171.728Z" fill="white"/>
</svg>
