<svg width="226" height="226" viewBox="0 0 226 226" fill="none" xmlns="http://www.w3.org/2000/svg">
<path fill-rule="evenodd" clip-rule="evenodd" d="M108.767 191.444C108.769 191.445 108.77 191.447 112.815 185.13C116.859 191.447 116.861 191.445 116.863 191.444L116.884 191.431L116.93 191.401L117.026 191.339L117.09 191.297C117.225 191.209 117.417 191.083 117.663 190.919C118.154 190.593 118.858 190.118 119.746 189.502C121.52 188.272 124.029 186.477 127.03 184.182C133.018 179.602 141.026 172.981 149.062 164.834C164.787 148.891 182.13 125.59 182.13 99.3716C182.13 81.5363 174.75 64.4958 161.72 51.9804C148.7 39.4749 131.103 32.5 112.815 32.5C94.5268 32.5 76.9299 39.4749 63.9098 51.9804C50.8794 64.4958 43.5 81.5363 43.5 99.3716C43.5 125.59 60.8423 148.891 76.5678 164.834C84.6034 172.981 92.6113 179.602 98.5999 184.182C101.601 186.477 104.11 188.272 105.884 189.502C106.771 190.118 107.476 190.593 107.967 190.919C108.212 191.083 108.404 191.209 108.54 191.297L108.638 191.361L108.699 191.401C108.699 191.401 108.728 191.419 108.746 191.431C108.754 191.436 108.767 191.444 108.767 191.444ZM74.3005 62.7986C84.4654 53.0355 98.3142 47.5 112.815 47.5C127.315 47.5 141.164 53.0355 151.329 62.7986C161.484 72.5519 167.13 85.7142 167.13 99.3716C167.13 119.331 153.565 138.909 138.383 154.301C130.965 161.822 123.519 167.983 117.917 172.267C115.955 173.768 114.226 175.033 112.815 176.038C111.403 175.033 109.675 173.768 107.713 172.267C102.111 167.983 94.6651 161.822 87.247 154.301C72.0651 138.909 58.5 119.331 58.5 99.3716C58.5 85.7142 64.1458 72.5519 74.3005 62.7986Z" fill="white"/>
<path fill-rule="evenodd" clip-rule="evenodd" d="M84.7099 99.3716C84.7099 84.0172 97.5808 72.081 112.815 72.081C128.049 72.081 140.92 84.0172 140.92 99.3716C140.92 114.726 128.049 126.662 112.815 126.662C97.5808 126.662 84.7099 114.726 84.7099 99.3716ZM99.7099 99.3716C99.7099 92.8659 105.289 87.081 112.815 87.081C120.34 87.081 125.92 92.8659 125.92 99.3716C125.92 105.877 120.34 111.662 112.815 111.662C105.289 111.662 99.7099 105.877 99.7099 99.3716Z" fill="white"/>
<path d="M112.815 185.13L108.77 191.447C111.236 193.025 114.394 193.025 116.859 191.447L112.815 185.13Z" fill="white"/>
</svg>
