<svg width="227" height="227" viewBox="0 0 227 227" fill="none" xmlns="http://www.w3.org/2000/svg">
<path d="M149.772 146.359C152.135 144.699 154.122 142.562 155.607 140.087V139.746C156.618 136.915 156.892 133.873 156.4 130.906C155.941 130.172 155.036 129.735 153.625 129.054C153.294 128.894 152.935 128.721 152.547 128.527C150.507 127.507 140.42 122.633 138.607 121.953C136.793 121.273 135.433 120.933 134.073 122.973C132.713 125.013 128.747 130 127.613 130.906C126.48 131.813 125.233 131.926 123.193 130.906C117.22 128.496 111.7 125.085 106.873 120.82C102.441 116.704 98.6236 111.971 95.54 106.767C94.4067 104.727 95.54 103.593 96.4467 102.687C97.1434 101.99 97.974 100.958 98.7842 99.9524C99.0283 99.6493 99.2705 99.3485 99.5067 99.0598C100.358 98.0382 101.046 96.8914 101.547 95.6598C101.825 95.1161 101.97 94.514 101.97 93.9032C101.97 93.2923 101.825 92.6902 101.547 92.1465C101.26 91.6312 100.048 88.6855 98.7144 85.4442C97.4081 82.2698 95.985 78.8114 95.2 77.0732C93.6133 73.5598 91.9133 73.5598 90.6667 73.5598H87.4933C86.4626 73.5717 85.4458 73.7997 84.5088 74.2292C83.5717 74.6587 82.7352 75.2801 82.0533 76.0532C79.7385 78.2283 77.9066 80.8657 76.6766 83.7943C75.4466 86.723 74.8458 89.8774 74.9133 93.0532C75.5728 100.698 78.448 107.985 83.1867 114.02C91.907 127.046 103.856 137.589 117.867 144.62C121.555 146.281 125.339 147.719 129.2 148.926C133.303 150.221 137.661 150.493 141.893 149.72C144.726 149.163 147.41 148.018 149.772 146.359Z" fill="white"/>
<path fill-rule="evenodd" clip-rule="evenodd" d="M77.0667 182.133C88.9568 188.757 102.329 192.266 115.94 192.333C132 192.221 147.667 187.36 160.97 178.36C174.272 169.361 184.613 156.627 190.692 141.762C196.771 126.896 198.315 110.564 195.13 94.8233C191.945 79.082 184.173 64.6354 172.793 53.3027C161.413 41.97 146.934 34.2582 131.18 31.1385C115.425 28.0188 99.1002 29.6307 84.2603 35.7713C69.4203 41.9118 56.7292 52.3064 47.7854 65.6459C38.8416 78.9853 34.0451 94.673 34 110.733C34.1132 125.023 38.0246 139.026 45.3333 151.307L36.9467 190.52L77.0667 182.133ZM115.94 43.5265C103.924 43.664 92.16 46.983 81.8443 53.1455C71.5286 59.3081 63.0301 68.0941 57.214 78.6091C51.398 89.124 48.4721 100.992 48.7343 113.006C48.9965 125.019 52.4374 136.749 58.7067 147L60.2933 149.606L53.4933 174.426L79.3333 167.4L81.8267 168.873C92.1352 174.945 103.863 178.19 115.827 178.28C133.861 178.28 151.157 171.116 163.91 158.363C176.662 145.611 183.827 128.315 183.827 110.28C183.827 92.2451 176.662 74.9491 163.91 62.1966C151.157 49.4441 133.975 43.5265 115.94 43.5265Z" fill="white"/>
</svg>
