<svg width="187" height="47" viewBox="0 0 187 47" fill="none" xmlns="http://www.w3.org/2000/svg">
<path fill-rule="evenodd" clip-rule="evenodd" d="M82.8693 16.9369C80.6523 15.1023 77.5089 14.0394 73.5201 13.7782V11.28H68.4124V13.7782C64.4237 14.0394 61.2742 15.1023 59.0452 16.9339C56.702 18.8616 55.5138 21.5249 55.5138 24.8548C55.5138 28.1847 56.717 30.845 59.0483 32.7577C61.2742 34.5803 64.4237 35.6342 68.4124 35.8984V38.4987H73.5111V35.9044C77.4998 35.6822 80.6433 34.6373 82.8632 32.7907C85.1915 30.854 86.3737 28.1847 86.3737 24.8548C86.3737 21.5249 85.1915 18.8616 82.8693 16.9369ZM79.1122 29.4608C80.4568 28.3468 81.1095 26.8305 81.1095 24.8218H81.1005C81.1005 22.813 80.4417 21.3027 79.0971 20.2008C77.8127 19.1528 75.9266 18.5103 73.5201 18.2881V31.4185C75.9597 31.1753 77.8367 30.5177 79.1122 29.4608ZM68.4214 18.2911C63.3408 18.7835 60.8681 20.9334 60.8681 24.8548H60.8591C60.8591 26.8395 61.5119 28.3408 62.8775 29.4428C64.162 30.4877 66.015 31.1513 68.4214 31.4155V18.2911Z" fill="#1E1112"/>
<path fill-rule="evenodd" clip-rule="evenodd" d="M97.9096 12.2558L86.518 37.5258H92.2003L94.6068 31.8869H106.212L108.654 37.5258H114.403L102.972 12.2558H97.9096ZM96.544 27.425H104.308L100.415 18.3811L96.544 27.425Z" fill="#1E1112"/>
<path fill-rule="evenodd" clip-rule="evenodd" d="M133.173 13.3398C131.365 12.5828 129.418 12.2135 127.458 12.2558H116.966V24.8908V37.5258H122.414V30.4967H127.461C129.421 30.539 131.368 30.1697 133.176 29.4127C134.735 28.7561 136.062 27.6487 136.985 26.233C137.854 24.7583 138.313 23.0784 138.313 21.3673C138.313 19.6562 137.854 17.9762 136.985 16.5015C136.058 15.0925 134.731 13.9917 133.173 13.3398ZM131.459 24.6146C132.379 23.8639 132.824 22.807 132.824 21.3838C132.824 19.9545 132.403 18.9096 131.465 18.1469C130.526 17.3843 129.109 16.9969 127.254 16.9969H122.414V25.7646H127.248C129.11 25.7646 130.538 25.3652 131.459 24.6146Z" fill="#1E1112"/>
<path d="M157.822 12.2558L150.68 26.0078L143.744 12.2558H137.851L147.808 30.851L147.57 31.2203C146.698 32.5985 145.639 33.2711 144.333 33.2711C143.572 33.2368 142.82 33.0911 142.101 32.8387L141.662 32.7006L140.285 37.0814L140.667 37.2436C141.855 37.765 143.138 38.0379 144.436 38.0452C146.028 38.0468 147.582 37.5651 148.894 36.6641C150.238 35.7633 151.408 34.3851 152.368 32.5865L163.329 12.2558H157.822Z" fill="#1E1112"/>
<path d="M183.102 30.2535C182.335 31.133 181.384 31.834 180.317 32.3071C179.249 32.7802 178.091 33.014 176.923 32.9919C175.433 33.0147 173.961 32.6571 172.648 31.9529C171.424 31.2866 170.411 30.2925 169.722 29.0825C169.029 27.7936 168.666 26.3536 168.666 24.8908C168.666 23.428 169.029 21.988 169.722 20.6992C170.41 19.4884 171.424 18.4941 172.648 17.8287C173.961 17.1235 175.433 16.7658 176.923 16.7898C178.088 16.7652 179.245 16.9942 180.312 17.4609C181.38 17.9275 182.332 18.6207 183.105 19.4921L183.405 19.8314L186.991 16.4655L186.705 16.1352C185.525 14.7586 184.039 13.6768 182.365 12.9764C180.572 12.2412 178.65 11.8736 176.712 11.8955C174.31 11.8669 171.939 12.4454 169.821 13.577C167.808 14.6543 166.127 16.2579 164.957 18.216C163.798 20.248 163.186 22.5455 163.183 24.8839C163.18 27.2223 163.785 29.5215 164.939 31.5566C166.098 33.5164 167.775 35.1209 169.785 36.1956C171.905 37.3254 174.276 37.9017 176.679 37.8711C178.622 37.8918 180.549 37.5242 182.346 36.7902C184.03 36.0954 185.527 35.0166 186.717 33.6404L187 33.3101L183.417 29.9052L183.102 30.2535Z" fill="#1E1112"/>
<path fill-rule="evenodd" clip-rule="evenodd" d="M184.516 6.43721L183.516 5.02392C184.107 4.81343 184.444 4.34434 184.444 3.69483C184.444 2.7807 183.781 2.22741 182.684 2.22741H181.039V6.43721H181.642V5.15623H182.684C182.775 5.15623 182.865 5.15022 182.949 5.1442L183.859 6.43721H184.516ZM181.642 4.64504H182.666C183.438 4.64504 183.841 4.29623 183.841 3.69483C183.841 3.09343 183.438 2.75063 182.666 2.75063H181.642V4.64504Z" fill="black"/>
<path fill-rule="evenodd" clip-rule="evenodd" d="M186.991 4.34345C186.991 6.74227 185.042 8.6869 182.639 8.6869C180.235 8.6869 178.287 6.74227 178.287 4.34345C178.287 1.94463 180.235 0 182.639 0C185.042 0 186.991 1.94463 186.991 4.34345ZM182.639 8.09292C184.714 8.09292 186.396 6.41422 186.396 4.34345C186.396 2.27267 184.714 0.593976 182.639 0.593976C180.564 0.593976 178.882 2.27267 178.882 4.34345C178.882 6.41422 180.564 8.09292 182.639 8.09292Z" fill="black"/>
<path d="M46.6147 31.6852C43.5009 39.0242 38.4174 39.0009 38.4174 39.0009H17.016C17.8416 37.8204 20.4246 33.4356 21.7987 31.4409H46.4849L44.4386 27.9517C42.8812 27.6871 41.2981 27.6012 39.7207 27.6958C37.1426 27.815 34.5787 28.1407 32.0542 28.6699C32.0308 28.6696 32.0077 28.6646 31.9863 28.6554C32.3225 28.1407 32.6999 27.6464 32.9889 27.1055C34.1064 25.0062 34.5369 22.7295 34.7139 20.3946C34.9674 17.0536 34.8613 13.7621 33.7526 10.6073C32.927 8.25786 28.1944 0 28.1944 0L0.883789 47H55.5138L46.6147 31.6852Z" fill="#013A33"/>
</svg>
